# File created by Blade
# Date/Time:  Tue Jan 27 17:01:45 2015
#---------------------------------------------------------
:version 1.10
:name HOM
:units
  mass 1.0
  length 1.000000
  angle deg
:documentation
     Acclaim Skeleton File
:root
   axis xyz
   order TX TY TZ RX RY RZ
   position 0.000000 0.000000 0.000000
   orientation 0 0 0
:bonedata
   begin
      id 1
      name Spine_dum
      direction 0.000000 1.000000 0.000000
      length 7.539951
      axis 0.0 0.0 0.0 xyz
   end
   begin
      id 2
      name LeftUpLeg_dum
      direction 1.000000 0.000000 0.000000
      length 3.345476
      axis 0.0 0.0 0.0 xyz
   end
   begin
      id 3
      name RightUpLeg_dum
      direction -1.000000 0.000000 0.000000
      length 3.345476
      axis 0.0 0.0 0.0 xyz
   end
   begin
      id 4
      name Spine
      direction 0.000000 1.000000 0.000000
      length 0.000000
      axis 0.0 0.0 0.0 xyz
      dof rx ry rz
   end
   begin
      id 5
      name Spine_dum1
      direction 0.000000 1.000000 0.000000
      length 15.093809
      axis 0.0 0.0 0.0 xyz
   end
   begin
      id 6
      name Spine_dum2
      direction 0.000000 1.000000 0.000000
      length 9.738928
      axis 0.0 0.0 0.0 xyz
   end
   begin
      id 7
      name Spine_dum3
      direction 0.000000 1.000000 0.000000
      length 9.738928
      axis 0.0 0.0 0.0 xyz
   end
   begin
      id 8
      name Head
      direction 0.000000 1.000000 0.000000
      length 4.527550
      axis 0.0 0.0 0.0 xyz
      dof rx ry rz
   end
   begin
      id 9
      name LeftShoulder
      direction 1.000000 0.000000 0.000000
      length 7.084015
      axis 0.0 0.0 -90.0 xyz
      dof rx ry rz
   end
   begin
      id 10
      name LeftArm
      direction 1.000000 0.000000 0.000000
      length 10.259319
      axis 0.0 0.0 -90.0 xyz
      dof rx ry rz
   end
   begin
      id 11
      name LeftForeArm
      direction 1.000000 0.000000 0.000000
      length 9.896984
      axis 0.0 0.0 -90.0 xyz
      dof ry rz rx
   end
   begin
      id 12
      name LeftHand
      direction 0.000000 0.000000 0.000000
      length 0.000000
      axis 0.0 0.0 -90.0 xyz
      dof rx ry rz
   end
   begin
      id 13
      name LeftHand_dum1
      direction 0.000000 0.000000 0.000000
      length 0.000000
      axis 0.0 0.0 -90.0 xyz
   end
   begin
      id 14
      name LeftHand_dum2
      direction 1.000000 0.000000 0.000000
      length 3.937000
      axis 0.0 0.0 -90.0 xyz
   end
   begin
      id 15
      name LeftHandThumb1
      direction 0.000000 0.000000 1.000000
      length 3.937000
      axis 0.0 0.0 -90.0 xyz
      dof rx rz ry
   end
   begin
      id 16
      name RightShoulder
      direction -1.000000 0.000000 0.000000
      length 7.084015
      axis 0.0 0.0 90.0 xyz
      dof rx ry rz
   end
   begin
      id 17
      name RightArm
      direction -1.000000 0.000000 0.000000
      length 10.259319
      axis 0.0 0.0 90.0 xyz
      dof rx ry rz
   end
   begin
      id 18
      name RightForeArm
      direction -1.000000 0.000000 0.000000
      length 9.896984
      axis 0.0 0.0 90.0 xyz
      dof ry rz rx
   end
   begin
      id 19
      name RightHand
      direction 0.000000 0.000000 0.000000
      length 0.000000
      axis 0.0 0.0 90.0 xyz
      dof rx ry rz
   end
   begin
      id 20
      name RightHand_dum1
      direction 0.000000 0.000000 0.000000
      length 0.000000
      axis 0.0 0.0 90.0 xyz
   end
   begin
      id 21
      name RightHand_dum2
      direction -1.000000 0.000000 0.000000
      length 3.937000
      axis 0.0 0.0 90.0 xyz
   end
   begin
      id 22
      name RightHandThumb1
      direction 0.000000 0.000000 1.000000
      length 3.937000
      axis 0.0 0.0 90.0 xyz
      dof rx rz ry
   end
   begin
      id 23
      name LeftUpLeg
      direction 0.000000 -1.000000 0.000000
      length 19.114733
      axis 0.0 0.0 0.0 xyz
      dof rx ry rz
   end
   begin
      id 24
      name LeftLeg
      direction 0.000000 -1.000000 0.000000
      length 16.045604
      axis 0.0 0.0 0.0 xyz
      dof rx ry rz
   end
   begin
      id 25
      name LeftFoot
      direction 0.000000 -0.258819 0.965926
      length 5.543155
      axis 15.0 0.0 0.0 xyz
      dof rx ry rz
   end
   begin
      id 26
      name LeftToeBase
      direction 0.000000 0.000000 1.000000
      length 2.952750
      axis 0.0 0.0 0.0 xyz
      dof rx ry rz
   end
   begin
      id 27
      name RightUpLeg
      direction 0.000000 -1.000000 0.000000
      length 19.114733
      axis 0.0 0.0 0.0 xyz
      dof rx ry rz
   end
   begin
      id 28
      name RightLeg
      direction 0.000000 -1.000000 0.000000
      length 16.045604
      axis 0.0 0.0 0.0 xyz
      dof rx ry rz
   end
   begin
      id 29
      name RightFoot
      direction 0.000000 -0.258819 0.965926
      length 5.543155
      axis 15.0 0.0 0.0 xyz
      dof rx ry rz
   end
   begin
      id 30
      name RightToeBase
      direction 0.000000 0.000000 1.000000
      length 2.952750
      axis 0.0 0.0 0.0 xyz
      dof rx ry rz
   end
:hierarchy
   begin
      root Spine_dum LeftUpLeg_dum RightUpLeg_dum
      Spine_dum Spine
      LeftUpLeg_dum LeftUpLeg
      RightUpLeg_dum RightUpLeg
      Spine Spine_dum1 Spine_dum2 Spine_dum3
      Spine_dum1 Head
      Spine_dum2 LeftShoulder
      Spine_dum3 RightShoulder
      LeftShoulder LeftArm
      LeftArm LeftForeArm
      LeftForeArm LeftHand
      LeftHand LeftHand_dum1 LeftHand_dum2
      LeftHand_dum1 LeftHandThumb1
      RightShoulder RightArm
      RightArm RightForeArm
      RightForeArm RightHand
      RightHand RightHand_dum1 RightHand_dum2
      RightHand_dum1 RightHandThumb1
      LeftUpLeg LeftLeg
      LeftLeg LeftFoot
      LeftFoot LeftToeBase
      RightUpLeg RightLeg
      RightLeg RightFoot
      RightFoot RightToeBase
   end

# File created by Blade
# Date/Time:  Tue Jan 27 17:01:38 2015
# Frame Rate: 120.000 fps
#------------------------------------------------------
:FULLY-SPECIFIED
:DEGREES
2778
root -1.648218 36.781966 6.649033 10.143366 25.208741 1.791754
Spine -11.994090 19.967288 -11.410331
Head 6.820195 0.162156 2.698022
LeftShoulder -13.532245 -9.488439 -1.021534
LeftArm -18.217012 -55.202797 -44.312546
LeftForeArm -63.519652 -0.000000 97.768491
LeftHand -2.281732 -0.000000 34.526342
LeftHandThumb1 -26.253704 0.000000 33.147579
RightShoulder -1.240545 -23.474989 -5.987721
RightArm 25.278093 -34.918811 56.611731
RightForeArm -146.945932 -0.000000 39.474224
RightHand -1.984408 -0.000000 -2.236831
RightHandThumb1 -24.326973 -0.000000 -32.862282
LeftUpLeg -9.595818 -1.444128 6.333476
LeftLeg 6.806304 -0.000000 -0.000000
LeftFoot -11.227012 -5.146932 -20.608636
LeftToeBase 14.759257 -0.000000 -0.000000
RightUpLeg -4.498311 -20.790665 1.221911
RightLeg 10.671311 -0.000000 -0.000000
RightFoot -23.093535 -14.224162 18.970682
RightToeBase 10.690168 -0.000000 -0.000000
2779
root -1.647273 36.784581 6.642690 10.188362 25.001012 1.760063
Spine -12.010524 19.993911 -11.371466
Head 6.738982 0.026661 2.679698
LeftShoulder -13.520093 -9.496380 -0.995696
LeftArm -18.388234 -55.223630 -44.124903
LeftForeArm -63.599802 -0.000000 97.593060
LeftHand -2.324595 -0.000000 34.550805
LeftHandThumb1 -26.253704 0.000000 33.147579
RightShoulder -1.245860 -23.467180 -5.960492
RightArm 25.340193 -35.001764 56.575801
RightForeArm -147.003781 0.000000 39.545322
RightHand -1.996906 -0.000000 -2.173057
RightHandThumb1 -24.326973 -0.000000 -32.862282
LeftUpLeg -9.622764 -1.290149 6.327902
LeftLeg 6.813173 -0.000000 -0.000000
LeftFoot -11.248327 -5.092634 -20.602854
LeftToeBase 14.753166 -0.000000 -0.000000
RightUpLeg -4.583769 -20.656744 1.240872
RightLeg 10.660276 -0.000000 -0.000000
RightFoot -23.029897 -14.194404 18.909676
RightToeBase 10.672614 -0.000000 -0.000000
2780
root -1.641137 36.785743 6.641563 10.229882 24.865962 1.760623
Spine -12.009382 19.938090 -11.335851
Head 6.663694 -0.065796 2.664645
LeftShoulder -13.531288 -9.516669 -0.951010
LeftArm -18.585917 -55.200070 -43.929014
LeftForeArm -63.653277 0.000000 97.440308
LeftHand -2.418474 -0.000000 34.638157
LeftHandThumb1 -26.253704 0.000000 33.147579
RightShoulder -1.257537 -23.455276 -5.938729
RightArm 25.370593 -35.087553 56.568717
RightForeArm -146.996255 -0.000000 39.620666
RightHand -1.972076 0.000000 -2.280026
RightHandThumb1 -24.326973 -0.000000 -32.862282
LeftUpLeg -9.629988 -1.228744 6.303499
LeftLeg 6.802738 -0.000000 -0.000000
LeftFoot -11.270723 -5.031678 -20.598246
LeftToeBase 14.762160 -0.000000 -0.000000
RightUpLeg -4.621636 -20.660833 1.227086
RightLeg 10.625474 -0.000000 -0.000000
RightFoot -22.978861 -14.098516 18.842178
RightToeBase 10.728887 -0.000000 -0.000000
2781
root -1.633501 36.787492 6.639300 10.270423 24.697101 1.755840
Spine -12.016777 19.900849 -11.304264
Head 6.603206 -0.127780 2.676507
LeftShoulder -13.575584 -9.504147 -0.906612
LeftArm -18.703020 -55.164005 -43.819631
LeftForeArm -63.671751 -0.000000 97.298296
LeftHand -2.637965 -0.000000 34.554456
LeftHandThumb1 -26.253704 0.000000 33.147579
RightShoulder -1.272477 -23.460382 -5.904926
RightArm 25.411433 -35.158256 56.548118
RightForeArm -147.055200 -0.000000 39.661037
RightHand -1.939164 -0.000000 -2.392266
RightHandThumb1 -24.326973 -0.000000 -32.862282
LeftUpLeg -9.627310 -1.159228 6.278421
LeftLeg 6.782666 -0.000000 -0.000000
LeftFoot -11.298035 -4.952344 -20.629045
LeftToeBase 14.742611 -0.000000 -0.000000
RightUpLeg -4.661911 -20.596572 1.211200
RightLeg 10.583346 -0.000000 -0.000000
RightFoot -22.918051 -14.040061 18.812493
RightToeBase 10.689230 -0.000000 -0.000000
2782
root -1.626253 36.788730 6.641474 10.302776 24.444504 1.730662
Spine -12.062027 19.970914 -11.295912
Head 6.555908 -0.267384 2.702054
LeftShoulder -13.592522 -9.442501 -0.863410
LeftArm -18.765259 -55.116627 -43.761158
LeftForeArm -63.702354 -0.000000 97.144437
LeftHand -2.661070 -0.000000 34.208791
LeftHandThumb1 -26.253704 0.000000 33.147579
RightShoulder -1.307660 -23.468879 -5.859176
RightArm 25.444372 -35.262569 56.537469
RightForeArm -147.030718 -0.000000 39.700756
RightHand -1.899702 -0.000000 -2.439421
RightHandThumb1 -24.326973 -0.000000 -32.862282
LeftUpLeg -9.592100 -0.972186 6.255369
LeftLeg 6.744181 -0.000000 -0.000000
LeftFoot -11.329171 -4.909730 -20.642758
LeftToeBase 14.731699 -0.000000 -0.000000
RightUpLeg -4.710550 -20.470552 1.203802
RightLeg 10.557075 -0.000000 -0.000000
RightFoot -22.855132 -13.966345 18.746292
RightToeBase 10.667307 -0.000000 -0.000000
2783
root -1.617091 36.790667 6.637950 10.384428 24.300855 1.719792
Spine -12.124537 19.933637 -11.260898
Head 6.512251 -0.354218 2.683483
LeftShoulder -13.617921 -9.445475 -0.821000
LeftArm -18.919329 -55.068836 -43.633726
LeftForeArm -63.835490 -0.000000 97.024033
LeftHand -2.856899 -0.000000 34.453462
LeftHandThumb1 -26.253704 0.000000 33.147579
RightShoulder -1.364739 -23.486152 -5.827763
RightArm 25.484586 -35.393613 56.495314
RightForeArm -147.066685 -0.000000 39.751928
RightHand -1.862640 -0.000000 -2.479392
RightHandThumb1 -24.326973 -0.000000 -32.862282
LeftUpLeg -9.647685 -0.918940 6.237046
LeftLeg 6.745322 -0.000000 -0.000000
LeftFoot -11.374619 -4.830666 -20.665159
LeftToeBase 14.761595 -0.000000 -0.000000
RightUpLeg -4.800690 -20.469681 1.210540
RightLeg 10.525717 -0.000000 -0.000000
RightFoot -22.799210 -13.854539 18.706882
RightToeBase 10.748054 -0.000000 -0.000000
2784
root -1.608142 36.791594 6.635144 10.466405 24.160782 1.719467
Spine -12.188896 19.879500 -11.234633
Head 6.483030 -0.453446 2.666739
LeftShoulder -13.630065 -9.434175 -0.791423
LeftArm -19.065915 -55.002282 -43.497008
LeftForeArm -63.846168 -0.000000 96.895491
LeftHand -2.904597 -0.000000 34.291175
LeftHandThumb1 -26.253704 0.000000 33.147579
RightShoulder -1.398618 -23.509352 -5.817192
RightArm 25.509098 -35.512527 56.487262
RightForeArm -147.141709 -0.000000 39.784536
RightHand -1.855893 -0.000000 -2.465143
RightHandThumb1 -24.326973 -0.000000 -32.862282
LeftUpLeg -9.696841 -0.872239 6.210654
LeftLeg 6.740903 -0.000000 -0.000000
LeftFoot -11.408152 -4.759750 -20.697395
LeftToeBase 14.730241 -0.000000 -0.000000
RightUpLeg -4.885956 -20.482831 1.208426
RightLeg 10.490905 -0.000000 -0.000000
RightFoot -22.714621 -13.772011 18.612426
RightToeBase 10.658645 -0.000000 -0.000000
2785
root -1.601278 36.793218 6.632597 10.494620 23.977195 1.711914
Spine -12.183149 19.857264 -11.187195
Head 6.450560 -0.484187 2.662111
LeftShoulder -13.664414 -9.421446 -0.776275
LeftArm -19.143307 -54.968316 -43.425132
LeftForeArm -63.802574 0.000000 96.783950
LeftHand -2.921528 -0.000000 34.327796
LeftHandThumb1 -26.253704 0.000000 33.147579
RightShoulder -1.384574 -23.517557 -5.823494
RightArm 25.534955 -35.598486 56.494564
RightForeArm -147.190758 -0.000000 39.766001
RightHand -1.867480 -0.000000 -2.493322
RightHandThumb1 -24.326973 -0.000000 -32.862282
LeftUpLeg -9.685631 -0.779465 6.183544
LeftLeg 6.730435 -0.000000 -0.000000
LeftFoot -11.443648 -4.686658 -20.709457
LeftToeBase 14.735482 -0.000000 -0.000000
RightUpLeg -4.927065 -20.420776 1.192572
RightLeg 10.468817 -0.000000 -0.000000
RightFoot -22.643849 -13.720256 18.513470
RightToeBase 10.647877 -0.000000 -0.000000
2786
root -1.591086 36.795222 6.630899 10.510660 23.684488 1.701065
Spine -12.190557 19.967954 -11.175819
Head 6.403507 -0.573684 2.664963
LeftShoulder -13.685442 -9.377713 -0.769749
LeftArm -19.152986 -54.934875 -43.424087
LeftForeArm -63.766416 -0.000000 96.696432
LeftHand -3.051594 0.000000 34.370876
LeftHandThumb1 -26.253704 0.000000 33.147579
RightShoulder -1.410654 -23.516078 -5.786475
RightArm 25.533620 -35.692397 56.486500
RightForeArm -147.223296 0.000000 39.750678
RightHand -1.884801 -0.000000 -2.628462
RightHandThumb1 -24.326973 -0.000000 -32.862282
LeftUpLeg -9.623937 -0.582766 6.134564
LeftLeg 6.688546 -0.000000 -0.000000
LeftFoot -11.477406 -4.601264 -20.698529
LeftToeBase 14.734378 -0.000000 -0.000000
RightUpLeg -4.969174 -20.242552 1.150150
RightLeg 10.467990 -0.000000 -0.000000
RightFoot -22.609282 -13.636417 18.496317
RightToeBase 10.710763 -0.000000 -0.000000
2787
root -1.581778 36.796542 6.628734 10.534049 23.532324 1.702388
Spine -12.165195 19.927502 -11.124897
Head 6.349250 -0.634444 2.653818
LeftShoulder -13.704004 -9.386068 -0.759569
LeftArm -19.241577 -54.894142 -43.343506
LeftForeArm -63.718122 0.000000 96.603463
LeftHand -3.125059 0.000000 34.523253
LeftHandThumb1 -26.253704 0.000000 33.147579
RightShoulder -1.423275 -23.501019 -5.771390
RightArm 25.534845 -35.817949 56.456644
RightForeArm -147.186993 -0.000000 39.753763
RightHand -1.814301 0.000000 -2.667283
RightHandThumb1 -24.326973 -0.000000 -32.862282
LeftUpLeg -9.611912 -0.525404 6.101841
LeftLeg 6.686371 -0.000000 -0.000000
LeftFoot -11.509642 -4.534448 -20.720577
LeftToeBase 14.704073 -0.000000 -0.000000
RightUpLeg -4.991791 -20.234431 1.123033
RightLeg 10.433324 -0.000000 -0.000000
RightFoot -22.554080 -13.543143 18.447209
RightToeBase 10.731500 -0.000000 -0.000000
2788
root -1.574982 36.797667 6.629667 10.555427 23.275635 1.676286
Spine -12.183676 19.972824 -11.091351
Head 6.311901 -0.657014 2.656050
LeftShoulder -13.717680 -9.364609 -0.746494
LeftArm -19.335166 -54.797115 -43.254180
LeftForeArm -63.694331 0.000000 96.476421
LeftHand -2.753117 -0.000000 34.605716
LeftHandThumb1 -26.253704 0.000000 33.147579
RightShoulder -1.425257 -23.508300 -5.751596
RightArm 25.530014 -35.907614 56.456084
RightForeArm -147.271202 -0.000000 39.736139
RightHand -1.771711 -0.000000 -2.774748
RightHandThumb1 -24.326973 -0.000000 -32.862282
LeftUpLeg -9.573495 -0.336323 6.078102
LeftLeg 6.657654 -0.000000 -0.000000
LeftFoot -11.544713 -4.492237 -20.738682
LeftToeBase 14.723791 -0.000000 -0.000000
RightUpLeg -5.029750 -20.102620 1.111611
RightLeg 10.402522 -0.000000 -0.000000
RightFoot -22.475001 -13.493677 18.360384
RightToeBase 10.682406 -0.000000 -0.000000
2789
root -1.567568 36.799004 6.627895 10.580695 23.111051 1.665973
Spine -12.178340 19.947179 -11.042431
Head 6.283310 -0.718830 2.644322
LeftShoulder -13.732027 -9.338242 -0.749412
LeftArm -19.376184 -54.763920 -43.213500
LeftForeArm -63.723632 -0.000000 96.419545
LeftHand -2.882498 -0.000000 34.717442
LeftHandThumb1 -26.253704 0.000000 33.147579
RightShoulder -1.446745 -23.533953 -5.731420
RightArm 25.537043 -35.989233 56.446327
RightForeArm -147.324141 -0.000000 39.697445
RightHand -1.789455 -0.000000 -2.790417
RightHandThumb1 -24.326973 -0.000000 -32.862282
LeftUpLeg -9.564300 -0.256793 6.056958
LeftLeg 6.653841 -0.000000 -0.000000
LeftFoot -11.578696 -4.426622 -20.755257
LeftToeBase 14.714260 -0.000000 -0.000000
RightUpLeg -5.062010 -20.079038 1.097360
RightLeg 10.372690 -0.000000 -0.000000
RightFoot -22.411559 -13.389993 18.292815
RightToeBase 10.716968 -0.000000 -0.000000
